<?xml version="1.0" standalone="no"?>
<!DOCTYPE svg PUBLIC "-//W3C//DTD SVG 20010904//EN"
 "http://www.w3.org/TR/2001/REC-SVG-20010904/DTD/svg10.dtd">
<svg version="1.0" xmlns="http://www.w3.org/2000/svg"
 width="300.000000pt" height="253.000000pt" viewBox="0 0 300.000000 253.000000"
 preserveAspectRatio="xMidYMid meet">
<metadata>
Created by potrace 1.10, written by Peter Selinger 2001-2011
</metadata>
<g transform="translate(0.000000,253.000000) scale(0.100000,-0.100000)"
fill="#000000" stroke="none">
<path d="M1395 2495 c-34 -24 -250 -184 -285 -212 -8 -7 -64 -49 -125 -94 -60
-45 -113 -86 -116 -91 -3 -4 -5 18 -5 49 0 32 -2 70 -4 85 -7 41 -51 100 -95
125 -37 21 -51 22 -181 20 -136 -2 -142 -3 -181 -30 -22 -15 -49 -45 -61 -66
-21 -37 -22 -50 -22 -313 l0 -274 -130 -98 c-72 -54 -140 -112 -152 -128 -15
-21 -22 -50 -25 -97 -3 -60 -1 -70 25 -106 45 -64 99 -88 198 -88 l84 0 0
-514 c0 -414 3 -520 14 -546 16 -39 61 -82 99 -96 40 -15 2095 -15 2134 0 38
14 71 46 94 91 18 35 19 66 19 550 l0 513 78 0 c140 1 231 72 231 180 1 87
-24 124 -146 214 -59 44 -112 84 -118 88 -9 8 -393 295 -625 467 -52 39 -99
75 -105 79 -65 51 -399 298 -414 306 -11 6 -49 11 -84 11 -52 0 -71 -5 -102
-25z m253 -67 c70 -50 253 -186 366 -271 16 -12 53 -40 82 -62 29 -22 72 -54
96 -71 24 -17 96 -71 161 -120 65 -49 140 -105 167 -124 61 -44 244 -182 290
-218 19 -15 51 -38 72 -52 48 -32 88 -95 88 -139 0 -19 -9 -54 -21 -78 -29
-59 -76 -82 -185 -90 -54 -4 -88 -11 -96 -20 -8 -10 -12 -156 -15 -531 -4
-581 -1 -555 -81 -600 l-40 -22 -1032 0 -1032 0 -41 22 c-23 13 -50 38 -61 57
-19 32 -20 55 -21 547 -1 380 -4 516 -13 527 -8 9 -41 16 -97 20 -47 3 -101
13 -120 23 -71 34 -104 143 -64 214 12 20 62 66 117 107 53 40 114 87 135 105
l38 33 5 280 c7 321 7 324 89 365 44 22 63 25 160 25 123 0 165 -13 209 -65
26 -32 34 -62 38 -144 4 -64 24 -79 64 -47 16 13 81 61 144 108 118 87 167
125 203 156 11 9 23 17 27 17 7 0 101 69 138 100 19 17 94 28 122 18 14 -5 62
-37 108 -70z"/>
<path d="M1419 1933 c-40 -34 -59 -79 -59 -138 0 -28 -5 -47 -12 -49 -72 -20
-101 -33 -147 -64 -190 -129 -215 -417 -50 -566 63 -57 126 -87 265 -126 60
-17 132 -37 160 -45 72 -21 104 -49 104 -89 0 -43 -24 -73 -68 -86 -96 -26
-213 -1 -336 72 -118 72 -209 61 -256 -31 -27 -55 -25 -89 9 -143 23 -37 47
-56 117 -94 48 -26 116 -56 150 -67 l64 -19 0 -52 c0 -94 65 -161 149 -153 78
8 131 71 131 154 l0 42 58 17 c63 18 151 64 185 98 105 101 143 264 96 403
-36 109 -158 206 -312 248 -274 75 -302 89 -302 156 0 40 3 46 35 62 60 31
155 19 270 -33 69 -32 108 -44 141 -44 117 1 183 137 112 232 -29 39 -116 87
-205 114 l-78 23 0 50 c0 124 -133 201 -221 128z m118 -3 c8 0 28 -13 44 -29
27 -27 29 -35 29 -99 l0 -70 33 -7 c100 -20 239 -83 262 -118 39 -60 25 -145
-29 -178 -45 -28 -91 -24 -171 16 -76 37 -171 65 -220 65 -86 0 -155 -51 -155
-114 0 -68 51 -100 241 -150 287 -76 396 -172 402 -353 1 -26 -1 -67 -5 -91
-21 -142 -156 -268 -308 -287 -47 -6 -51 -13 -49 -74 3 -91 -31 -131 -113
-131 -35 0 -54 6 -75 24 -25 22 -29 32 -33 102 l-5 77 -60 17 c-108 30 -220
86 -269 135 -51 51 -32 151 35 185 51 27 75 25 134 -10 103 -61 177 -91 243
-99 147 -19 242 26 242 114 0 61 -49 94 -210 140 -229 66 -288 92 -351 155
-118 118 -111 332 15 472 32 35 140 94 189 102 l37 7 0 68 c0 54 4 74 21 95
20 26 73 48 97 40 8 -2 20 -4 29 -4z"/>
</g>
</svg>
