<?xml version="1.0" standalone="no"?>
<!DOCTYPE svg PUBLIC "-//W3C//DTD SVG 20010904//EN"
 "http://www.w3.org/TR/2001/REC-SVG-20010904/DTD/svg10.dtd">
<svg version="1.0" xmlns="http://www.w3.org/2000/svg"
 width="900.000000pt" height="759.000000pt" viewBox="0 0 900.000000 759.000000"
 preserveAspectRatio="xMidYMid meet">
<metadata>
Created by potrace 1.10, written by Peter Selinger 2001-2011
</metadata>
<g transform="translate(0.000000,759.000000) scale(0.100000,-0.100000)"
fill="#000000" stroke="none">
<path d="M4360 7531 c-32 -7 -118 -45 -162 -71 -10 -5 -24 -13 -32 -17 -7 -5
-40 -30 -72 -56 -33 -27 -69 -52 -81 -57 -13 -5 -23 -14 -23 -19 0 -5 -8 -12
-18 -15 -10 -4 -32 -19 -48 -34 -35 -33 -100 -82 -109 -82 -9 0 -89 -63 -98
-77 -4 -7 -14 -13 -22 -13 -8 0 -28 -13 -45 -30 -17 -16 -34 -30 -38 -30 -5 0
-21 -13 -37 -30 -16 -16 -33 -30 -37 -30 -11 0 -170 -121 -181 -137 -4 -7 -12
-13 -17 -13 -8 0 -179 -124 -190 -139 -8 -10 -98 -71 -105 -71 -3 0 -18 -13
-32 -30 -13 -16 -29 -30 -34 -30 -11 0 -103 -69 -107 -81 -2 -5 -9 -9 -16 -9
-6 0 -26 -13 -44 -30 -18 -16 -37 -30 -43 -30 -5 0 -21 -13 -36 -30 -14 -16
-32 -30 -40 -30 -7 0 -16 -7 -19 -15 -4 -8 -10 -15 -15 -15 -6 0 -23 -10 -39
-21 -54 -40 -57 -31 -62 191 -4 129 -10 206 -17 213 -6 6 -11 23 -11 37 0 14
-7 35 -15 46 -8 10 -15 26 -15 34 0 20 -20 46 -102 134 -61 66 -134 116 -169
116 -8 0 -23 7 -33 15 -12 9 -41 15 -71 15 -28 0 -56 5 -61 10 -14 14 -589 7
-664 -8 -49 -9 -89 -24 -142 -53 -10 -5 -23 -9 -29 -9 -22 0 -179 -155 -179
-177 0 -4 -14 -35 -30 -67 -17 -32 -30 -68 -30 -80 -1 -12 -7 -32 -15 -46 -12
-21 -14 -149 -15 -812 l0 -788 -23 -26 c-12 -14 -33 -32 -47 -39 -14 -8 -37
-25 -52 -39 -15 -14 -30 -26 -34 -26 -4 0 -14 -7 -23 -15 -39 -36 -89 -75 -97
-75 -5 0 -27 -16 -49 -35 -52 -45 -55 -47 -90 -69 -16 -11 -34 -25 -38 -33 -4
-7 -14 -13 -20 -13 -7 0 -27 -14 -45 -30 -18 -16 -37 -30 -41 -30 -4 0 -20
-13 -36 -30 -16 -16 -34 -30 -41 -30 -7 0 -17 -6 -21 -13 -4 -7 -21 -21 -38
-32 -44 -27 -132 -124 -157 -170 -11 -22 -27 -51 -34 -65 -8 -14 -14 -34 -14
-45 0 -12 -5 -26 -11 -32 -14 -14 -14 -242 0 -256 6 -6 11 -19 11 -29 0 -10
13 -44 30 -75 16 -31 30 -61 30 -67 0 -6 26 -38 58 -72 41 -44 80 -72 140
-102 101 -50 178 -63 447 -71 l190 -6 3 -1526 c2 -1341 4 -1528 17 -1539 8 -7
15 -22 16 -34 1 -35 32 -118 63 -166 34 -53 113 -138 141 -151 11 -5 38 -20
60 -34 22 -13 49 -24 60 -25 12 0 27 -6 34 -12 18 -19 6264 -19 6282 0 7 6 19
12 27 12 25 0 97 38 121 64 14 14 29 26 34 26 20 0 89 82 125 150 24 45 52
134 52 166 0 17 6 36 13 42 9 8 12 318 11 1494 0 815 2 1494 6 1508 l6 25 190
6 c268 9 343 21 434 66 97 48 183 132 233 231 20 41 37 81 37 91 0 9 5 22 11
28 14 14 14 242 0 256 -6 6 -11 18 -11 27 0 8 -7 28 -15 44 -8 15 -15 35 -15
43 0 8 -9 25 -19 37 -11 11 -43 48 -71 80 -27 33 -64 68 -82 78 -17 11 -37 25
-44 31 -7 7 -29 23 -50 37 -20 14 -47 35 -59 48 -12 12 -28 22 -34 22 -6 0
-25 13 -41 30 -16 16 -32 30 -35 30 -11 0 -105 72 -105 81 0 5 -5 9 -12 9 -13
0 -129 88 -141 107 -4 7 -14 13 -22 13 -8 0 -25 10 -37 21 -13 12 -59 48 -103
80 -44 32 -91 68 -105 79 -14 12 -65 51 -115 87 -49 37 -94 72 -98 80 -4 7
-17 13 -27 13 -11 0 -20 4 -20 8 0 5 -33 32 -72 60 -40 28 -79 57 -86 63 -7 6
-43 34 -80 62 -37 28 -73 57 -80 64 -7 7 -20 13 -27 13 -8 0 -18 6 -22 13 -11
17 -169 137 -181 137 -5 0 -21 14 -35 30 -15 17 -34 30 -42 30 -8 0 -15 4 -15
8 0 9 -165 133 -192 144 -10 4 -18 12 -18 18 0 5 -6 10 -13 10 -8 0 -33 18
-58 40 -24 22 -52 42 -61 46 -10 3 -18 9 -18 14 0 5 -17 19 -37 31 -21 13 -43
28 -50 34 -6 5 -37 28 -67 49 -31 22 -56 43 -56 48 0 4 -6 8 -13 8 -11 0 -32
16 -99 75 -10 8 -21 15 -24 15 -9 0 -128 93 -137 108 -4 6 -14 12 -22 12 -8 0
-25 10 -38 23 -50 45 -73 64 -102 82 -16 10 -50 35 -74 54 -25 20 -61 46 -80
60 -20 13 -40 30 -44 37 -4 8 -13 14 -18 14 -11 0 -168 115 -185 136 -6 8 -15
14 -20 14 -6 0 -23 11 -39 25 -17 14 -70 55 -120 92 -49 36 -94 72 -98 80 -4
7 -15 13 -22 13 -8 0 -23 8 -33 18 -22 21 -73 62 -103 82 -24 16 -187 138
-204 152 -74 62 -216 158 -275 186 -71 34 -81 36 -195 38 -66 2 -136 -1 -155
-5z m250 -1728 c66 -28 100 -48 100 -56 0 -4 11 -12 25 -17 14 -5 28 -18 32
-27 7 -18 43 -73 54 -83 3 -3 13 -28 22 -57 13 -39 17 -89 17 -208 0 -115 3
-157 13 -160 6 -2 36 -6 66 -9 29 -2 58 -9 64 -15 6 -6 24 -11 39 -11 16 0 45
-7 65 -15 19 -8 46 -15 59 -15 13 0 24 -4 24 -10 0 -5 7 -10 16 -10 33 0 299
-118 314 -139 3 -4 30 -19 61 -34 60 -28 179 -144 179 -174 0 -9 8 -25 18 -36
14 -16 17 -39 17 -147 0 -108 -3 -131 -17 -147 -10 -11 -18 -27 -18 -36 0 -9
-30 -48 -67 -86 -65 -65 -125 -101 -172 -101 -10 0 -33 -7 -51 -16 -28 -14
-39 -15 -79 -5 -25 7 -64 15 -86 18 -22 3 -45 9 -50 13 -22 18 -268 140 -282
140 -7 0 -24 6 -36 14 -30 19 -203 76 -231 76 -12 0 -28 6 -34 13 -10 9 -67
12 -217 12 -150 0 -207 -3 -216 -12 -7 -7 -22 -13 -33 -13 -24 0 -116 -57
-136 -85 -31 -41 -50 -86 -50 -115 0 -16 -4 -30 -9 -30 -17 0 -21 -33 -6 -56
8 -13 15 -38 15 -56 0 -19 8 -45 17 -58 25 -38 114 -120 128 -120 7 0 18 -7
25 -15 7 -8 20 -15 30 -15 10 0 42 -11 72 -24 31 -14 73 -28 94 -32 22 -3 44
-10 49 -14 11 -8 170 -55 250 -74 28 -6 55 -14 60 -18 6 -3 28 -9 49 -13 22
-5 51 -14 65 -21 14 -8 38 -14 52 -14 15 0 40 -7 55 -15 16 -8 39 -15 51 -15
12 0 24 -4 27 -9 3 -5 23 -12 43 -16 21 -4 49 -13 63 -20 14 -8 48 -22 75 -31
28 -10 52 -21 55 -24 3 -4 57 -33 121 -64 64 -32 127 -68 140 -82 12 -13 27
-24 32 -24 6 0 33 -21 61 -46 28 -25 55 -48 59 -52 4 -4 32 -38 63 -77 59 -75
124 -201 124 -239 0 -13 6 -29 14 -35 12 -10 24 -65 32 -146 11 -116 15 -247
9 -262 -4 -10 -9 -45 -10 -78 -5 -92 -16 -148 -33 -168 -8 -9 -13 -20 -9 -23
6 -7 -40 -144 -54 -159 -5 -5 -9 -17 -9 -27 0 -10 -7 -21 -15 -24 -8 -3 -24
-26 -35 -50 -12 -24 -25 -44 -29 -44 -4 0 -14 -13 -24 -29 -25 -42 -164 -181
-182 -181 -8 0 -15 -4 -15 -8 0 -22 -243 -154 -315 -171 -45 -10 -96 -27 -140
-46 -16 -8 -61 -16 -99 -20 -111 -10 -106 -1 -106 -180 0 -86 -4 -163 -9 -173
-5 -9 -21 -42 -36 -74 -24 -51 -103 -138 -125 -138 -5 0 -16 -7 -24 -16 -9 -8
-27 -17 -41 -18 -14 -2 -31 -8 -37 -14 -19 -19 -182 -16 -198 3 -7 8 -21 15
-30 15 -64 0 -210 146 -210 210 0 9 -7 23 -15 30 -12 10 -15 44 -15 186 0 198
5 187 -91 198 -31 4 -65 14 -75 21 -11 8 -35 15 -54 15 -19 0 -44 7 -54 15
-11 8 -27 15 -37 15 -9 0 -30 7 -45 15 -16 8 -39 15 -50 15 -12 0 -27 7 -34
15 -7 8 -21 15 -31 15 -10 0 -20 4 -23 9 -3 4 -34 19 -68 32 -35 13 -69 29
-76 36 -7 7 -19 13 -26 13 -7 0 -32 14 -54 30 -23 17 -46 30 -52 30 -5 0 -10
5 -10 10 0 6 -10 14 -23 19 -33 13 -107 61 -145 95 -99 90 -143 231 -118 380
8 47 78 168 116 199 15 13 53 36 86 51 32 16 67 32 76 37 23 12 193 12 216 0
9 -5 53 -26 97 -47 44 -22 96 -51 116 -66 20 -16 40 -28 44 -28 3 0 21 -11 38
-24 18 -13 71 -43 120 -66 48 -23 90 -46 93 -51 3 -5 16 -9 28 -9 13 0 54 -11
92 -25 38 -14 94 -28 124 -32 30 -3 64 -12 75 -19 33 -21 386 -22 407 -1 7 8
34 16 60 20 87 12 176 77 221 162 17 33 21 56 20 131 -2 132 -26 173 -140 242
-29 17 -64 34 -78 38 -14 3 -28 10 -31 15 -3 5 -13 9 -22 9 -9 0 -29 6 -44 14
-15 8 -42 17 -60 21 -18 4 -37 11 -43 15 -9 8 -98 35 -155 47 -14 3 -29 9 -35
13 -5 4 -34 11 -63 15 -30 4 -66 13 -80 21 -15 8 -38 14 -52 14 -14 1 -36 7
-50 15 -14 8 -36 14 -50 15 -23 0 -92 20 -145 41 -11 4 -31 11 -45 14 -25 6
-71 26 -122 52 -14 7 -31 13 -36 13 -15 0 -144 60 -162 75 -8 7 -26 15 -40 19
-28 7 -223 160 -229 179 -2 7 -16 24 -32 39 -16 15 -29 31 -29 36 0 5 -9 17
-21 28 -23 21 -99 176 -99 202 0 9 -7 30 -15 46 -9 16 -18 62 -22 103 -3 41
-10 76 -14 79 -12 7 -12 291 0 298 4 3 11 38 14 77 4 43 12 78 22 88 8 10 15
27 15 39 0 28 40 122 85 200 12 21 65 92 83 110 6 7 12 17 12 21 0 14 140 151
155 151 8 0 18 6 22 13 11 17 148 107 163 107 7 0 23 9 37 20 14 11 36 20 49
20 13 0 24 5 24 10 0 6 9 10 19 10 11 0 26 7 35 15 8 8 26 15 41 15 14 0 36 5
48 12 12 7 45 15 72 18 l50 5 3 165 c1 90 7 169 12 174 6 6 10 19 10 31 0 57
152 225 203 225 8 0 20 7 27 14 23 29 174 28 240 -1z"/>
</g>
</svg>
